<svg xmlns="http://www.w3.org/2000/svg" width="33" height="33" fill="none"><g fill="#fff" clip-path="url(#a)"><path d="M31.41 22.13H16.17v-1.52h-1.52v7.62h-1.53v3.05h18.29v-1.53h1.52v-9.14h-1.52v1.52Zm-12.19 6.1h-1.53v-4.57h1.53v4.57Zm4.57-1.52h-1.52v-3.05h1.52v3.05Zm3.05 0h-1.53v-3.05h1.53v3.05Zm3.04 1.52h-1.52v-4.57h1.52v4.57ZM31.41 19.09h-3.05v1.52h3.05v-1.52ZM28.36 17.56h-1.52v1.53h1.52v-1.53ZM28.36 6.9h-1.52v4.57h1.52V6.9ZM26.84 11.47h-1.53v6.09h1.53v-6.09ZM25.31 8.42h-3.04v3.05h3.04V8.42ZM22.27 11.47h-1.53v6.09h1.53v-6.09ZM26.84 6.9V5.37h-4.57V3.85h-1.53V6.9h6.1ZM20.74 17.56h-1.52v1.53h1.52v-1.53ZM20.74 6.9h-1.52v3.04h-1.53v1.53h3.05V6.9ZM19.22 19.09h-3.05v1.52h3.05v-1.52Z"/><path d="M16.17 5.37V3.85H7.03v1.52H3.98V6.9H5.5v1.52h1.53v1.52h9.14V8.42h1.52V6.9h1.53V5.37h-3.05ZM20.74 2.33h-3.05v1.52h3.05V2.33ZM5.5 11.47v1.52h9.15v1.53h1.52v-1.53h1.52v-1.52H5.5ZM14.65 14.52H11.6v1.52h3.05v-1.52ZM11.6 16.04H8.55v1.52h3.05v-1.52ZM17.69.8H5.5v1.53h12.19V.8ZM13.12 25.18H5.5v1.53h7.62v-1.53ZM8.55 17.56H3.98v1.53h4.57v-1.53ZM5.5 23.66H3.98v1.52H5.5v-1.52ZM5.5 9.94H3.98v1.53H5.5V9.94ZM5.5 2.33H2.46v1.52H5.5V2.33ZM3.98 22.13H2.46v1.53h1.52v-1.53Z"/><path d="M2.46 16.04v-6.1h1.52V8.42H2.46V3.85H.93v18.28h1.53v-4.57h1.52v-1.52H2.46Z"/></g><defs><clipPath id="a"><path fill="#fff" d="M.93.04h32v32h-32z"/></clipPath></defs></svg>